<svg width="3000" height="48" viewBox="0 0 3000 48" fill="#161616" xmlns="http://www.w3.org/2000/svg">
<rect width="3000" height="48" fill="#161616"/>
<rect width="145" height="48" fill="#161616" style="mix-blend-mode:multiply"/>
<g filter="url(#filter0_i_12_1129)">
<rect width="145" height="48" fill="#161616" style="mix-blend-mode:multiply"/>
<path d="M20.76 29H16.84V28.02H18.212V20.208H16.84V19.228H20.76V20.208H19.388V28.02H20.76V29ZM23.0675 29V19.228H27.0855C28.6955 19.228 29.6895 20.222 29.6895 21.748C29.6895 23.204 28.7515 23.722 28.1075 23.82V23.904C28.8075 23.946 30.0255 24.548 30.0255 26.172C30.0255 27.782 28.9475 29 27.5055 29H23.0675ZM24.2435 24.464V27.964H27.1415C28.1495 27.964 28.7655 27.432 28.7655 26.452V25.976C28.7655 24.996 28.1495 24.464 27.1415 24.464H24.2435ZM24.2435 20.264V23.456H26.9455C27.8695 23.456 28.4295 22.966 28.4295 22.098V21.622C28.4295 20.754 27.8695 20.264 26.9455 20.264H24.2435ZM32.374 29V19.228H33.942L36.742 24.492H36.812L39.626 19.228H41.138V29H39.99V20.768H39.92L39.094 22.406L36.756 26.662L34.418 22.406L33.592 20.768H33.522V29H32.374Z" fill="#F4F4F4"/>
<path d="M50.942 29.168C48.366 29.168 46.728 27.474 46.728 24.184C46.728 20.894 48.366 19.06 50.942 19.06C52.692 19.06 53.826 19.802 54.512 21.314L52.93 22.154C52.65 21.286 52.034 20.698 50.942 20.698C49.57 20.698 48.688 21.692 48.688 23.358V24.898C48.688 26.578 49.57 27.53 50.942 27.53C52.048 27.53 52.734 26.858 53.056 25.976L54.554 26.858C53.854 28.314 52.692 29.168 50.942 29.168ZM58.9364 29H57.9704C56.7524 29 56.1784 28.356 56.1784 27.236V18.64H57.9704V27.572H58.9364V29ZM63.3517 29.168C61.2657 29.168 59.9637 27.684 59.9637 25.332C59.9637 22.994 61.2657 21.524 63.3517 21.524C65.4517 21.524 66.7537 22.994 66.7537 25.332C66.7537 27.684 65.4517 29.168 63.3517 29.168ZM63.3517 27.726C64.2897 27.726 64.8777 27.124 64.8777 26.018V24.66C64.8777 23.568 64.2897 22.966 63.3517 22.966C62.4277 22.966 61.8397 23.568 61.8397 24.66V26.018C61.8397 27.124 62.4277 27.726 63.3517 27.726ZM72.8703 29V27.782H72.8003C72.5483 28.51 71.9603 29.168 70.7563 29.168C69.2583 29.168 68.4183 28.132 68.4183 26.312V21.692H70.2103V26.13C70.2103 27.138 70.5883 27.684 71.4423 27.684C72.1563 27.684 72.8703 27.306 72.8703 26.522V21.692H74.6623V29H72.8703ZM81.4288 29V27.782H81.3588C81.0928 28.608 80.3088 29.168 79.3428 29.168C77.5088 29.168 76.4868 27.782 76.4868 25.332C76.4868 22.896 77.5088 21.524 79.3428 21.524C80.3088 21.524 81.1068 22.056 81.3588 22.896H81.4288V18.64H83.2208V29H81.4288ZM79.9168 27.684C80.7708 27.684 81.4288 27.25 81.4288 26.494V24.17C81.4288 23.456 80.7708 22.994 79.9168 22.994C78.9928 22.994 78.3628 23.68 78.3628 24.716V25.976C78.3628 27.012 78.9928 27.684 79.9168 27.684ZM90.8759 29H89.0279V19.228H93.4239C95.2299 19.228 96.3219 20.446 96.3219 22.252C96.3219 24.072 95.2299 25.276 93.4239 25.276H90.8759V29ZM90.8759 20.838V23.68H93.2559C93.9699 23.68 94.4039 23.288 94.4039 22.574V21.93C94.4039 21.216 93.9699 20.838 93.2559 20.838H90.8759ZM99.6593 29.168C98.1753 29.168 97.3353 28.314 97.3353 27.012C97.3353 25.514 98.4693 24.772 100.457 24.772H101.703V24.24C101.703 23.428 101.297 22.952 100.345 22.952C99.5053 22.952 99.0293 23.372 98.6793 23.876L97.6153 22.924C98.1473 22.084 99.0013 21.524 100.471 21.524C102.445 21.524 103.495 22.462 103.495 24.128V27.572H104.223V29H103.229C102.459 29 101.983 28.496 101.871 27.74H101.787C101.549 28.678 100.751 29.168 99.6593 29.168ZM100.261 27.866C101.059 27.866 101.703 27.502 101.703 26.816V25.85H100.555C99.6173 25.85 99.1553 26.172 99.1553 26.746V26.984C99.1553 27.572 99.5613 27.866 100.261 27.866ZM105.834 29V18.64H107.626V24.884H107.696L108.662 23.568L110.3 21.692H112.33L109.81 24.52L112.596 29H110.468L108.592 25.724L107.626 26.774V29H105.834Z" fill="#F4F4F4"/>
</g>
<g filter="url(#filter1_i_12_1129)">
<rect width="2855" height="48" transform="translate(145)" fill="#161616" style="mix-blend-mode:multiply"/>
</g>
<defs>
<filter id="filter0_i_12_1129" x="0" y="0" width="145" height="48" filterUnits="userSpaceOnUse" color-interpolation-filters="sRGB">
<feFlood flood-opacity="0" result="BackgroundImageFix"/>
<feBlend mode="normal" in="SourceGraphic" in2="BackgroundImageFix" result="shape"/>
<feColorMatrix in="SourceAlpha" type="matrix" values="0 0 0 0 0 0 0 0 0 0 0 0 0 0 0 0 0 0 127 0" result="hardAlpha"/>
<feOffset dy="-1"/>
<feComposite in2="hardAlpha" operator="arithmetic" k2="-1" k3="1"/>
<feColorMatrix type="matrix" values="0 0 0 0 0.223529 0 0 0 0 0.223529 0 0 0 0 0.223529 0 0 0 1 0"/>
<feBlend mode="normal" in2="shape" result="effect1_innerShadow_12_1129"/>
</filter>
<filter id="filter1_i_12_1129" x="145" y="0" width="2855" height="48" filterUnits="userSpaceOnUse" color-interpolation-filters="sRGB">
<feFlood flood-opacity="0" result="BackgroundImageFix"/>
<feBlend mode="normal" in="SourceGraphic" in2="BackgroundImageFix" result="shape"/>
<feColorMatrix in="SourceAlpha" type="matrix" values="0 0 0 0 0 0 0 0 0 0 0 0 0 0 0 0 0 0 127 0" result="hardAlpha"/>
<feOffset dy="-1"/>
<feComposite in2="hardAlpha" operator="arithmetic" k2="-1" k3="1"/>
<feColorMatrix type="matrix" values="0 0 0 0 0.223529 0 0 0 0 0.223529 0 0 0 0 0.223529 0 0 0 1 0"/>
<feBlend mode="normal" in2="shape" result="effect1_innerShadow_12_1129"/>
</filter>
</defs>
</svg>
