<?xml version="1.0" encoding="UTF-8" standalone="no"?>
<!-- Created with Inkscape (http://www.inkscape.org/) -->

<svg
   width="186.24666mm"
   height="17.249613mm"
   viewBox="0 0 186.24666 17.249613"
   version="1.1"
   id="svg1"
   inkscape:export-filename="keycloak.png"
   inkscape:export-xdpi="96"
   inkscape:export-ydpi="96"
   inkscape:version="1.3.2 (091e20ef0f, 2023-11-25)"
   sodipodi:docname="logo.svg"
   xmlns:inkscape="http://www.inkscape.org/namespaces/inkscape"
   xmlns:sodipodi="http://sodipodi.sourceforge.net/DTD/sodipodi-0.dtd"
   xmlns="http://www.w3.org/2000/svg"
   xmlns:svg="http://www.w3.org/2000/svg">
  <sodipodi:namedview
     id="namedview1"
     pagecolor="#000000"
     bordercolor="#000000"
     borderopacity="0.25"
     inkscape:showpageshadow="2"
     inkscape:pageopacity="0.0"
     inkscape:pagecheckerboard="0"
     inkscape:deskcolor="#d1d1d1"
     inkscape:document-units="mm"
     inkscape:zoom="1.4342733"
     inkscape:cx="327.34348"
     inkscape:cy="109.4631"
     inkscape:window-width="1936"
     inkscape:window-height="1216"
     inkscape:window-x="26"
     inkscape:window-y="23"
     inkscape:window-maximized="0"
     inkscape:current-layer="layer1" />
  <defs
     id="defs1" />
  <g
     inkscape:label="Layer 1"
     inkscape:groupmode="layer"
     id="layer1"
     transform="translate(-8.1083421,-112.18333)">
    <path
       id="text1"
       style="font-style:normal;font-variant:normal;font-weight:normal;font-stretch:normal;font-size:7.49788px;font-family:'Red Hat Display';-inkscape-font-specification:'Red Hat Display';text-align:center;text-anchor:middle;fill:#f9f9f9;stroke-width:0.468618"
       d="m 64.178319,118.77053 c -0.47986,0 -0.84733,0.1175 -1.10226,0.35244 -0.25492,0.22993 -0.3824,0.56471 -0.3824,1.00459 v 0.37465 h -0.86972 v 0.85473 h 0.86972 v 3.05201 h 1.02733 v -3.05201 h 1.06453 v -0.85473 h -1.06453 v -0.35243 c 0,-0.17495 0.0471,-0.30191 0.14211,-0.38189 0.1,-0.085 0.2474,-0.12764 0.44235,-0.12764 0.085,0 0.16256,0.005 0.23254,0.015 0.07,0.01 0.15256,0.025 0.24753,0.045 v -0.86248 c -0.08,-0.025 -0.17477,-0.0422 -0.28474,-0.0522 -0.10996,-0.01 -0.21749,-0.015 -0.32246,-0.015 z m -15.93546,0.0972 c -0.15995,0 -0.29741,0.0576 -0.41238,0.1726 -0.11496,0.10996 -0.1726,0.24742 -0.1726,0.41237 0,0.15996 0.0576,0.29741 0.1726,0.41238 0.11497,0.11497 0.25243,0.1726 0.41238,0.1726 0.16495,0 0.30241,-0.0576 0.41238,-0.1726 0.11497,-0.11497 0.1726,-0.25242 0.1726,-0.41238 0,-0.16495 -0.0576,-0.30241 -0.1726,-0.41237 -0.10997,-0.11497 -0.24743,-0.1726 -0.41238,-0.1726 z m -26.19737,0.1204 -1.02732,0.17209 v 1.59731 c -0.15496,-0.1 -0.32235,-0.17532 -0.5023,-0.22531 -0.17995,-0.055 -0.36729,-0.0822 -0.56224,-0.0822 -0.37989,0 -0.72241,0.0898 -1.02733,0.26975 -0.30491,0.17495 -0.54765,0.41494 -0.7276,0.71985 -0.17495,0.29992 -0.262,0.63745 -0.262,1.01234 0,0.3749 0.0871,0.71467 0.262,1.01958 0.17995,0.29991 0.41994,0.5399 0.71985,0.71985 0.29992,0.17995 0.63521,0.26975 1.00511,0.26975 0.41988,0 0.78958,-0.12472 1.10949,-0.37465 v 0.32246 h 1.01234 z m 17.53744,0 -1.02733,0.17209 v 5.24877 h 1.01234 v -0.27027 c 0.15495,0.10497 0.3251,0.18531 0.51005,0.2403 0.18494,0.055 0.37452,0.0822 0.56947,0.0822 0.37489,0 0.71466,-0.0871 1.01958,-0.262 0.30491,-0.17994 0.54765,-0.41993 0.7276,-0.71985 0.17995,-0.30491 0.26975,-0.6452 0.26975,-1.02009 0,-0.3749 -0.0898,-0.71191 -0.26975,-1.01183 -0.17495,-0.30491 -0.41219,-0.54765 -0.7121,-0.7276 -0.29992,-0.17995 -0.63521,-0.26975 -1.00511,-0.26975 -0.41988,0 -0.78459,0.12249 -1.0945,0.36742 z m 11.00708,0 -1.02733,0.17209 v 5.24877 h 1.02733 z m 4.73097,0 -1.02732,0.17209 v 1.59731 c -0.15496,-0.1 -0.32235,-0.17532 -0.5023,-0.22531 -0.17995,-0.055 -0.36729,-0.0822 -0.56224,-0.0822 -0.37989,0 -0.72241,0.0898 -1.02733,0.26975 -0.30491,0.17495 -0.54714,0.41494 -0.72708,0.71985 -0.17495,0.29992 -0.26252,0.63745 -0.26252,1.01234 0,0.3749 0.0876,0.71467 0.26252,1.01958 0.17994,0.29991 0.41993,0.5399 0.71985,0.71985 0.29991,0.17995 0.63469,0.26975 1.00459,0.26975 0.41988,0 0.78958,-0.12472 1.10949,-0.37465 v 0.32246 h 1.01234 z m 29.88448,0 -1.02732,0.17209 v 5.24877 h 1.02732 z m 10.6469,0 -1.02733,0.17209 v 5.24877 h 1.02733 v -1.78439 l 1.64951,1.78439 h 1.31206 l -1.95698,-2.1146 1.84485,-1.79214 h -1.16221 l -1.68723,1.64228 z m -86.9549001,0.17209 v 5.24877 h 1.0867504 v -2.0097 h 1.1849497 l 1.02732,2.0097 h 1.2144 l -1.1622,-2.16679 c 0.30991,-0.12497 0.55764,-0.31507 0.74259,-0.56999 0.18494,-0.25493 0.27698,-0.5498 0.27698,-0.8847 0,-0.31991 -0.0771,-0.60257 -0.23203,-0.8475 -0.14995,-0.24493 -0.36276,-0.43451 -0.63768,-0.56947 -0.26993,-0.13996 -0.582,-0.21032 -0.9369,-0.21032 z m 15.5246301,0 v 5.24877 h 1.08728 v -2.15181 h 2.41432 v 2.15181 h 1.08727 v -5.24877 h -1.08727 v 2.11459 h -2.41432 v -2.11459 z m 42.47803,0 v 5.24877 h 1.08727 v -2.43706 l 2.28668,2.43706 h 1.4547 l -2.66961,-2.75177 2.54972,-2.497 h -1.32757 l -2.29392,2.34714 v -2.34714 z m -31.47095,0.11265 -1.02732,0.23254 v 0.99684 h -0.80254 v 0.85473 h 0.80254 v 1.94975 c 0,0.37989 0.10975,0.66977 0.32969,0.86972 0.22494,0.19494 0.55525,0.29249 0.99012,0.29249 0.10997,0 0.24244,-0.01 0.39739,-0.03 0.15996,-0.02 0.29243,-0.0477 0.3974,-0.0827 v -0.84698 c -0.1,0.035 -0.19253,0.0599 -0.27751,0.0749 -0.08,0.01 -0.17029,0.015 -0.27026,0.015 -0.19995,0 -0.33964,-0.0377 -0.41962,-0.11265 -0.08,-0.08 -0.11989,-0.2097 -0.11989,-0.38964 v -1.73995 h 1.11725 v -0.85473 h -1.11725 z m -25.4449597,0.82476 h 1.3797697 c 0.24493,0 0.44001,0.0649 0.58497,0.19482 0.14996,0.12996 0.2248,0.3001 0.2248,0.51004 0,0.20994 -0.0748,0.37957 -0.2248,0.50953 -0.14496,0.12996 -0.34004,0.19534 -0.58497,0.19534 H 9.9842093 Z m 21.5532097,0.32969 c -0.28492,0 -0.56981,0.0349 -0.85473,0.1049 -0.27992,0.07 -0.57479,0.17527 -0.8847,0.31523 l 0.37517,0.75706 c 0.24993,-0.10997 0.46997,-0.18979 0.65991,-0.23978 0.18995,-0.055 0.36732,-0.0827 0.53227,-0.0827 0.26992,0 0.47499,0.0576 0.61495,0.1726 0.13996,0.11497 0.2098,0.28511 0.2098,0.51005 v 0.28473 c -0.29991,-0.10497 -0.61972,-0.15761 -0.95963,-0.15761 -0.49486,0 -0.88503,0.10528 -1.16995,0.31523 -0.27992,0.20494 -0.41961,0.49482 -0.41961,0.86971 0,0.23493 0.0599,0.44224 0.17983,0.62218 0.11997,0.17995 0.28736,0.3224 0.5023,0.42737 0.21493,0.1 0.46215,0.14986 0.74207,0.14986 0.21994,0 0.42277,-0.0272 0.60771,-0.0822 0.18495,-0.055 0.35733,-0.14255 0.51728,-0.26251 v 0.2775 h 1.01235 v -2.53421 c 0,-0.45987 -0.14795,-0.81512 -0.44287,-1.06505 -0.28992,-0.25493 -0.6973,-0.38241 -1.22215,-0.38241 z m 27.99726,0 c -0.38989,0 -0.74463,0.0903 -1.06454,0.27027 -0.31491,0.17995 -0.56487,0.42493 -0.74982,0.73484 -0.17995,0.30491 -0.26975,0.64692 -0.26975,1.02681 0,0.37989 0.092,0.72241 0.27698,1.02733 0.18495,0.30491 0.43492,0.54765 0.74983,0.7276 0.31491,0.17995 0.66741,0.26975 1.0573,0.26975 0.39489,0 0.74962,-0.0898 1.06453,-0.26975 0.31491,-0.17995 0.56264,-0.42269 0.74259,-0.7276 0.18495,-0.30492 0.27751,-0.64744 0.27751,-1.02733 0,-0.37989 -0.0926,-0.7219 -0.27751,-1.02681 -0.17995,-0.30991 -0.42991,-0.55489 -0.74982,-0.73484 -0.31491,-0.17995 -0.66741,-0.27027 -1.0573,-0.27027 z m 22.52162,0 c -0.38489,0 -0.7324,0.0903 -1.04231,0.27027 -0.30991,0.17995 -0.55489,0.42217 -0.73484,0.72709 -0.17995,0.30491 -0.26975,0.64967 -0.26975,1.03456 0,0.37989 0.0898,0.72517 0.26975,1.03508 0.17995,0.30491 0.42493,0.54714 0.73484,0.72708 0.30991,0.17496 0.65742,0.26252 1.04231,0.26252 0.29992,0 0.5898,-0.0599 0.86972,-0.17983 0.27992,-0.12497 0.51991,-0.29511 0.71985,-0.51005 l -0.61495,-0.64492 c -0.13996,0.14496 -0.2874,0.25523 -0.44235,0.33021 -0.14996,0.07 -0.31236,0.1049 -0.48731,0.1049 -0.19994,0 -0.3823,-0.0477 -0.54725,-0.14262 -0.16496,-0.1 -0.29519,-0.23468 -0.39016,-0.40463 -0.09,-0.17495 -0.13488,-0.3678 -0.13488,-0.57774 0,-0.21994 0.0449,-0.41451 0.13488,-0.58446 0.095,-0.16995 0.22021,-0.30517 0.37517,-0.40515 0.15996,-0.1 0.34008,-0.14986 0.54002,-0.14986 0.18495,0 0.35457,0.0399 0.50953,0.11989 0.15995,0.075 0.31238,0.19248 0.45734,0.35244 l 0.62993,-0.66715 c -0.20494,-0.22493 -0.44992,-0.39731 -0.73484,-0.51728 -0.27992,-0.11996 -0.57479,-0.18035 -0.8847,-0.18035 z m 5.85597,0 c -0.38988,0 -0.74514,0.0903 -1.06505,0.27027 -0.31491,0.17995 -0.56436,0.42493 -0.7493,0.73484 -0.17995,0.30491 -0.27027,0.64692 -0.27027,1.02681 0,0.37989 0.0925,0.72241 0.2775,1.02733 0.18495,0.30491 0.43491,0.54765 0.74982,0.7276 0.31492,0.17995 0.66742,0.26975 1.0573,0.26975 0.39489,0 0.74963,-0.0898 1.06454,-0.26975 0.31491,-0.17995 0.56264,-0.42269 0.74259,-0.7276 0.18495,-0.30492 0.27699,-0.64744 0.27699,-1.02733 0,-0.37989 -0.092,-0.7219 -0.27699,-1.02681 -0.17995,-0.30991 -0.42992,-0.55489 -0.74983,-0.73484 -0.31491,-0.17995 -0.66741,-0.27027 -1.0573,-0.27027 z m 4.46847,0 c -0.28492,0 -0.56981,0.0349 -0.85473,0.1049 -0.27992,0.07 -0.57479,0.17527 -0.8847,0.31523 l 0.37517,0.75706 c 0.24993,-0.10997 0.46944,-0.18979 0.65939,-0.23978 0.18995,-0.055 0.36783,-0.0827 0.53278,-0.0827 0.26993,0 0.47448,0.0576 0.61444,0.1726 0.13996,0.11497 0.21032,0.28511 0.21032,0.51005 v 0.28473 c -0.29992,-0.10497 -0.62025,-0.15761 -0.96015,-0.15761 -0.49486,0 -0.88452,0.10528 -1.16944,0.31523 -0.27992,0.20494 -0.42013,0.49482 -0.42013,0.86971 0,0.23493 0.0604,0.44224 0.18035,0.62218 0.11997,0.17995 0.28736,0.3224 0.5023,0.42737 0.21494,0.1 0.46215,0.14986 0.74207,0.14986 0.21994,0 0.42225,-0.0272 0.6072,-0.0822 0.18495,-0.055 0.35784,-0.14255 0.5178,-0.26251 v 0.2775 h 1.01182 v -2.53421 c 0,-0.45987 -0.14743,-0.81512 -0.44235,-1.06505 -0.28991,-0.25493 -0.69729,-0.38241 -1.22214,-0.38241 z m -76.85526,0.008 c -0.37489,0 -0.71518,0.0898 -1.02009,0.26975 -0.30492,0.17995 -0.54714,0.42269 -0.72709,0.72761 -0.17495,0.30491 -0.26252,0.64692 -0.26252,1.02681 0,0.37989 0.0926,0.72241 0.2775,1.02733 0.18495,0.30491 0.43492,0.54765 0.74983,0.7276 0.31991,0.17995 0.67464,0.26975 1.06453,0.26975 0.31491,0 0.59757,-0.0449 0.8475,-0.13487 0.25493,-0.09 0.50214,-0.23242 0.74207,-0.42737 l -0.67489,-0.61495 c -0.10497,0.1 -0.23193,0.17756 -0.38189,0.23255 -0.14496,0.055 -0.30513,0.0822 -0.48008,0.0822 -0.17495,0 -0.3401,-0.0349 -0.49506,-0.1049 -0.14995,-0.07 -0.27743,-0.16753 -0.3824,-0.29249 -0.1,-0.12496 -0.17206,-0.26466 -0.21704,-0.41961 h 2.89388 v -0.27027 c 0,-0.39989 -0.0848,-0.75686 -0.25477,-1.07177 -0.16495,-0.31491 -0.39273,-0.56488 -0.68264,-0.74982 -0.28992,-0.18495 -0.62195,-0.27751 -0.99684,-0.27751 z m 57.99853,0 c -0.3749,0 -0.71518,0.0898 -1.0201,0.26975 -0.30491,0.17995 -0.54714,0.42269 -0.72708,0.72761 -0.17495,0.30491 -0.26252,0.64692 -0.26252,1.02681 0,0.37989 0.0926,0.72241 0.2775,1.02733 0.18495,0.30491 0.43492,0.54765 0.74983,0.7276 0.31991,0.17995 0.67464,0.26975 1.06453,0.26975 0.31491,0 0.59757,-0.0449 0.84749,-0.13487 0.25493,-0.09 0.50215,-0.23242 0.74208,-0.42737 l -0.6749,-0.61495 c -0.10497,0.1 -0.23244,0.17756 -0.3824,0.23255 -0.14496,0.055 -0.30461,0.0822 -0.47956,0.0822 -0.17495,0 -0.3401,-0.0349 -0.49506,-0.1049 -0.14996,-0.07 -0.27743,-0.16753 -0.3824,-0.29249 -0.1,-0.12496 -0.17258,-0.26466 -0.21756,-0.41961 h 2.89439 v -0.27027 c 0,-0.39989 -0.0848,-0.75686 -0.25476,-1.07177 -0.16495,-0.31491 -0.39273,-0.56488 -0.68265,-0.74982 -0.28991,-0.18495 -0.62194,-0.27751 -0.99683,-0.27751 z m -30.26741,0.0672 v 2.42208 c 0,0.30491 0.0654,0.57483 0.19534,0.80977 0.13496,0.23493 0.31732,0.42004 0.54725,0.555 0.23494,0.12996 0.50211,0.19482 0.80202,0.19482 0.43488,0 0.80234,-0.13023 1.10226,-0.39016 v 0.31523 h 1.02733 v -3.90674 h -1.02733 v 2.70681 c -0.09,0.12497 -0.20472,0.22251 -0.34468,0.29249 -0.13496,0.065 -0.28739,0.0977 -0.45734,0.0977 -0.24993,0 -0.45,-0.0754 -0.59996,-0.22531 -0.14496,-0.14996 -0.21756,-0.34952 -0.21756,-0.59945 v -2.27221 z m 4.47673,0 v 3.90674 h 1.02681 v -3.90674 z m 27.83758,0 1.52187,3.94395 -0.0599,0.14986 c -0.14496,0.3549 -0.40491,0.53278 -0.7798,0.53278 -0.13996,0 -0.26021,-0.01 -0.36019,-0.03 v 0.8847 c 0.055,0.01 0.1226,0.0172 0.20258,0.0222 0.085,0.01 0.17254,0.015 0.26251,0.015 0.28492,0 0.5299,-0.0422 0.73484,-0.12713 0.20994,-0.085 0.39505,-0.22243 0.55501,-0.41237 0.15995,-0.18995 0.30738,-0.44267 0.44235,-0.75758 l 1.79937,-4.22145 h -1.10949 l -1.10226,2.66186 -0.97514,-2.66186 z m -60.06817,0.7798 c 0.15496,0 0.29517,0.0354 0.42013,0.10542 0.12996,0.065 0.23972,0.15702 0.3297,0.27699 0.095,0.11496 0.15983,0.25018 0.19482,0.40514 h -1.89653 c 0.04,-0.15996 0.10209,-0.29741 0.18707,-0.41238 0.09,-0.11997 0.20025,-0.21252 0.33021,-0.2775 0.12997,-0.065 0.27465,-0.0977 0.4346,-0.0977 z m 57.99853,0 c 0.15495,0 0.29516,0.0354 0.42013,0.10542 0.12996,0.065 0.23972,0.15702 0.32969,0.27699 0.095,0.11496 0.15983,0.25018 0.19482,0.40514 h -1.89704 c 0.04,-0.15996 0.10261,-0.29741 0.18759,-0.41238 0.09,-0.11997 0.19973,-0.21252 0.32969,-0.2775 0.12997,-0.065 0.27516,-0.0977 0.43512,-0.0977 z m -53.41276,0.0377 c 0.18495,0 0.35732,0.0327 0.51728,0.0977 0.15995,0.065 0.29741,0.15479 0.41238,0.26975 v 1.52187 c -0.11497,0.12497 -0.25243,0.22028 -0.41238,0.28526 -0.15496,0.06 -0.32734,0.0899 -0.51728,0.0899 -0.21494,0 -0.41003,-0.0499 -0.58498,-0.14986 -0.16995,-0.1 -0.30465,-0.23519 -0.40463,-0.40514 -0.1,-0.16995 -0.15037,-0.36229 -0.15037,-0.57723 0,-0.21494 0.0504,-0.40727 0.15037,-0.57722 0.1,-0.17495 0.23468,-0.31017 0.40463,-0.40515 0.17495,-0.1 0.37004,-0.14986 0.58498,-0.14986 z m 33.27549,0 c 0.18494,0 0.35732,0.0327 0.51728,0.0977 0.15995,0.065 0.29741,0.15479 0.41238,0.26975 v 1.52187 c -0.11497,0.12497 -0.25243,0.22028 -0.41238,0.28526 -0.15496,0.06 -0.32734,0.0899 -0.51728,0.0899 -0.21494,0 -0.41003,-0.0499 -0.58498,-0.14986 -0.16995,-0.1 -0.30466,-0.23519 -0.40463,-0.40514 -0.1,-0.16995 -0.14986,-0.36229 -0.14986,-0.57723 0,-0.21494 0.0499,-0.40727 0.14986,-0.57722 0.1,-0.17495 0.23468,-0.31017 0.40463,-0.40515 0.17495,-0.1 0.37004,-0.14986 0.58498,-0.14986 z m 6.17068,0 c 0.20494,0 0.3873,0.0526 0.54725,0.15762 0.16496,0.1 0.29519,0.23467 0.39016,0.40462 0.1,0.16995 0.14986,0.36229 0.14986,0.57723 0,0.20994 -0.0499,0.40279 -0.14986,0.57774 -0.095,0.16995 -0.2252,0.30466 -0.39016,0.40463 -0.15995,0.1 -0.34231,0.14986 -0.54725,0.14986 -0.19994,0 -0.3823,-0.0499 -0.54725,-0.14986 -0.16496,-0.1 -0.29519,-0.23468 -0.39016,-0.40463 -0.095,-0.17495 -0.14211,-0.3678 -0.14211,-0.57774 0,-0.21494 0.0471,-0.40728 0.14211,-0.57723 0.095,-0.16995 0.2252,-0.30465 0.39016,-0.40462 0.16495,-0.10497 0.34731,-0.15762 0.54725,-0.15762 z m 28.37759,0 c 0.20495,0 0.3873,0.0526 0.54726,0.15762 0.16495,0.1 0.29467,0.23467 0.38964,0.40462 0.1,0.16995 0.15038,0.36229 0.15038,0.57723 0,0.20994 -0.0504,0.40279 -0.15038,0.57774 -0.095,0.16995 -0.22469,0.30466 -0.38964,0.40463 -0.15996,0.1 -0.34231,0.14986 -0.54726,0.14986 -0.19994,0 -0.3823,-0.0499 -0.54725,-0.14986 -0.16495,-0.1 -0.29518,-0.23468 -0.39016,-0.40463 -0.095,-0.17495 -0.14262,-0.3678 -0.14262,-0.57774 0,-0.21494 0.0476,-0.40728 0.14262,-0.57723 0.095,-0.16995 0.22521,-0.30465 0.39016,-0.40462 0.16495,-0.10497 0.34731,-0.15762 0.54725,-0.15762 z m -47.39969,0.007 c 0.21494,0 0.40728,0.0504 0.57723,0.15038 0.17495,0.095 0.31241,0.22967 0.41238,0.40462 0.1,0.16995 0.14986,0.36229 0.14986,0.57723 0,0.21494 -0.0499,0.40779 -0.14986,0.57774 -0.1,0.16995 -0.23743,0.30466 -0.41238,0.40463 -0.16995,0.1 -0.36229,0.14986 -0.57723,0.14986 -0.18494,0 -0.36008,-0.0322 -0.52503,-0.0971 -0.15995,-0.065 -0.29466,-0.1553 -0.40462,-0.27027 v -1.52187 c 0.11496,-0.12497 0.24967,-0.21752 0.40462,-0.2775 0.15996,-0.065 0.33509,-0.0977 0.52503,-0.0977 z m -9.14724,1.4397 c 0.15495,0 0.29964,0.0127 0.4346,0.0377 0.13496,0.025 0.26519,0.0622 0.39015,0.11213 v 0.57 c -0.11496,0.085 -0.24519,0.14983 -0.39015,0.19482 -0.14496,0.04 -0.30237,0.0599 -0.47233,0.0599 -0.21493,0 -0.38731,-0.0422 -0.51728,-0.12712 -0.12996,-0.09 -0.19482,-0.21023 -0.19482,-0.36019 0,-0.14996 0.0649,-0.26746 0.19482,-0.35243 0.13497,-0.09 0.32008,-0.13488 0.55501,-0.13488 z m 60.84331,0 c 0.15496,0 0.29964,0.0127 0.4346,0.0377 0.13496,0.025 0.26519,0.0622 0.39016,0.11213 v 0.57 c -0.11497,0.085 -0.2452,0.14983 -0.39016,0.19482 -0.14496,0.04 -0.30237,0.0599 -0.47232,0.0599 -0.21494,0 -0.38732,-0.0422 -0.51728,-0.12712 -0.12996,-0.09 -0.19482,-0.21023 -0.19482,-0.36019 0,-0.14996 0.0649,-0.26746 0.19482,-0.35243 0.13496,-0.09 0.32007,-0.13488 0.555,-0.13488 z" />
  </g>
</svg>
